<svg width="12" height="16" viewBox="0 0 12 16" fill="none" xmlns="http://www.w3.org/2000/svg">
<path d="M8.13749 6.06511C8.13883 4.90531 7.19971 3.96402 6.03991 3.96269C4.88011 3.96136 3.93883 4.90048 3.9375 6.06028C3.93616 7.22008 4.87528 8.16136 6.03508 8.16269C7.19488 8.16403 8.13616 7.2249 8.13749 6.06511Z" stroke="#232B2F" stroke-width="0.75" stroke-miterlimit="10" stroke-linecap="round" stroke-linejoin="round"/>
<path d="M1.6 8.99999C0.999997 8.19999 0.699997 7.09999 0.699997 6.09999C0.699997 3.19999 3.1 0.799988 6 0.799988C8.9 0.799988 11.3 3.19999 11.3 6.09999C11.3 7.19999 11 8.19999 10.4 8.99999C10.4 8.99999 8.1 12.7 6.8 14.8C6.6 15.1 6.3 15.3 6 15.3C5.7 15.3 5.3 15.1 5.2 14.8C3.9 12.7 1.6 8.99999 1.6 8.99999Z" stroke="#232B2F" stroke-width="0.75" stroke-miterlimit="10" stroke-linecap="round" stroke-linejoin="round"/>
</svg>
