<svg width="18" height="24" viewBox="0 0 18 24" fill="none" xmlns="http://www.w3.org/2000/svg">
<path d="M12.2062 9.0976C12.2082 7.3579 10.7996 5.94598 9.05987 5.94398C7.32017 5.94198 5.90825 7.35066 5.90625 9.09036C5.90425 10.8301 7.31293 12.242 9.05263 12.244C10.7923 12.246 12.2042 10.8373 12.2062 9.0976Z" stroke="#00D188" stroke-width="1.12" stroke-miterlimit="10" stroke-linecap="round" stroke-linejoin="round"/>
<path d="M2.4 13.5C1.5 12.3 1.05 10.65 1.05 9.14995C1.05 4.79995 4.65 1.19995 9 1.19995C13.35 1.19995 16.95 4.79995 16.95 9.14995C16.95 10.8 16.5 12.3 15.6 13.5C15.6 13.5 12.15 19.05 10.2 22.2C9.9 22.65 9.45 22.95 9 22.95C8.55 22.95 7.95 22.65 7.8 22.2C5.85 19.05 2.4 13.5 2.4 13.5Z" stroke="#00D188" stroke-width="1.12" stroke-miterlimit="10" stroke-linecap="round" stroke-linejoin="round"/>
</svg>
