<svg width="237" height="48" viewBox="0 0 237 48" fill="none" xmlns="http://www.w3.org/2000/svg">
<path d="M16.6803 16.2083L0 32.8886L14.7268 47.6154C15.4489 48.3375 16.6823 47.8262 16.6823 46.8057V16.2083H16.6803Z" fill="#FFBB00"/>
<path d="M33.3625 31.7427C33.3625 32.3753 32.8493 32.8886 32.2167 32.8886H16.6803H0V16.6818C0 16.3774 0.121347 16.087 0.336192 15.8721L15.8726 0.335694C16.3202 -0.111898 17.0463 -0.111898 17.4939 0.335694L33.0303 15.8721C33.2452 16.087 33.3665 16.3794 33.3665 16.6818V31.7427H33.3625Z" fill="url(#paint0_linear_1_1028)"/>
<path d="M16.6803 32.8886H0V16.6817C0 16.3774 0.121347 16.0869 0.336192 15.8721L15.793 0.413251C16.1213 0.0850163 16.6803 0.317764 16.6803 0.781271V32.8886Z" fill="url(#paint1_linear_1_1028)"/>
<path d="M64.8233 16.5684C64.8233 21.3646 61.0655 24.5495 56.1261 24.5495H48.7179V32.8886H44.8169V8.58533H56.2355C61.1013 8.58533 64.8233 11.7722 64.8233 16.5684ZM60.8148 16.64C60.8148 13.9903 58.5948 12.2377 55.947 12.2377H48.7179V20.9707H55.947C58.5968 20.9707 60.8148 19.2519 60.8148 16.64Z" fill="#212B30"/>
<path d="M67.4034 14.3483H71.2686V17.9271C72.128 15.6732 74.919 13.8112 78.8558 13.8112V16.9961C74.1671 16.9961 71.3403 19.6816 71.2686 23.6185V32.8886H67.4034V14.3483Z" fill="#212B30"/>
<path d="M78.8976 23.6542C78.8976 18.2513 83.4073 13.847 89.0271 13.847C94.6469 13.847 99.1566 18.2493 99.1566 23.6542C99.1566 29.0592 94.6469 33.4257 89.0271 33.4257C83.4073 33.4257 78.8976 29.0592 78.8976 23.6542ZM95.4346 23.6542C95.4346 20.1471 92.6795 17.3183 89.0291 17.3183C85.3787 17.3183 82.6216 20.1451 82.6216 23.6542C82.6216 27.1275 85.3767 29.9543 89.0291 29.9543C92.6775 29.9543 95.4346 27.1275 95.4346 23.6542Z" fill="#212B30"/>
<path d="M102.119 14.3841H105.984V16.1745C107.273 14.8854 109.527 13.847 112.212 13.847C117.868 13.847 121.876 18.2493 121.876 23.6542C121.876 29.0592 117.868 33.4257 112.212 33.4257C109.169 33.4257 107.201 32.244 105.984 30.9211V40.4777H102.119V14.3841ZM118.119 23.6542C118.119 20.1471 115.757 17.2825 112.284 17.2825C108.813 17.2825 105.769 19.61 105.769 23.6542C105.769 27.6647 108.813 29.9901 112.284 29.9901C115.755 29.9901 118.119 27.1614 118.119 23.6542Z" fill="#212B30"/>
<path d="M124.904 14.3483H128.769V17.9271C129.629 15.6732 132.42 13.8112 136.356 13.8112V16.9961C131.668 16.9961 128.841 19.6816 128.769 23.6185V32.8886H124.904V14.3483Z" fill="#212B30"/>
<path d="M159.957 8.58533V32.8886H156.056V21.7565H143.422V32.8886H139.521V8.58533H143.422V18.1061H156.056V8.58533H159.957Z" fill="#212B30"/>
<path d="M163.371 23.6542C163.371 18.2513 167.881 13.847 173.501 13.847C179.12 13.847 183.63 18.2493 183.63 23.6542C183.63 29.0592 179.12 33.4257 173.501 33.4257C167.883 33.4257 163.371 29.0592 163.371 23.6542ZM179.908 23.6542C179.908 20.1471 177.153 17.3183 173.503 17.3183C169.852 17.3183 167.095 20.1451 167.095 23.6542C167.095 27.1275 169.85 29.9543 173.503 29.9543C177.153 29.9543 179.908 27.1275 179.908 23.6542Z" fill="#212B30"/>
<path d="M214.795 21.5078V32.8886H210.929V21.8997C210.929 18.9297 209.855 17.2467 207.315 17.2467C204.987 17.2467 202.662 19.0013 202.662 22.4726V32.8886H198.797V21.8997C198.797 18.9297 197.722 17.2467 195.182 17.2467C193.034 17.2467 190.851 18.7506 190.565 21.7565V32.8886H186.7V14.3841H190.565V16.6022C190.78 16.1009 192.033 13.8112 195.755 13.8112C198.369 13.8112 200.408 14.8496 201.59 16.8529C202.449 15.2415 204.381 13.8112 207.89 13.8112C212.037 13.8112 214.795 16.4252 214.795 21.5078Z" fill="#212B30"/>
<path d="M217.621 23.6184C217.621 18.0703 221.88 13.847 227.608 13.847C232.977 13.847 236.09 18.2851 236.09 22.759V24.5494H221.307C221.737 27.414 223.742 29.9901 227.93 29.9901C232.475 29.9901 235.231 28.0585 235.266 28.0585V31.5299C235.266 31.5299 233.261 33.4277 227.858 33.4277C221.345 33.4257 217.621 28.9517 217.621 23.6184ZM232.225 21.5436C232.082 20.1113 231.151 16.998 227.106 16.998C223.062 16.998 221.701 20.1113 221.487 21.5436H232.225Z" fill="#212B30"/>
<defs>
<linearGradient id="paint0_linear_1_1028" x1="16.681" y1="32.7972" x2="16.681" y2="0.438661" gradientUnits="userSpaceOnUse">
<stop stop-color="#00D188"/>
<stop offset="0.5536" stop-color="#00D4C8"/>
<stop offset="1" stop-color="#00D6F7"/>
</linearGradient>
<linearGradient id="paint1_linear_1_1028" x1="8.34008" y1="32.8889" x2="8.34008" y2="0.259717" gradientUnits="userSpaceOnUse">
<stop stop-color="#009902"/>
<stop offset="0.3056" stop-color="#00AD50"/>
<stop offset="0.7869" stop-color="#00CAC7"/>
<stop offset="1" stop-color="#00D6F6"/>
</linearGradient>
</defs>
</svg>
