<svg width="9" height="15" viewBox="0 0 9 15" fill="none" xmlns="http://www.w3.org/2000/svg">
<mask id="path-1-inside-1_32_209" fill="white">
<path d="M8.43012 7.47367L1.03812 14.8657L0.372711 14.2003L7.09836 7.47461L0.372711 0.747077L1.03812 0.081665L8.43012 7.47367Z"/>
</mask>
<path d="M8.43012 7.47367L1.03812 14.8657L0.372711 14.2003L7.09836 7.47461L0.372711 0.747077L1.03812 0.081665L8.43012 7.47367Z" fill="#7A8083"/>
<path d="M8.43012 7.47367L9.13723 8.18077L9.84434 7.47367L9.13723 6.76656L8.43012 7.47367ZM1.03812 14.8657L0.331017 15.5728L1.03812 16.2799L1.74523 15.5728L1.03812 14.8657ZM0.372711 14.2003L-0.334396 13.4931L-1.0415 14.2003L-0.334395 14.9074L0.372711 14.2003ZM7.09836 7.47461L7.80546 8.18171L8.51247 7.47471L7.80556 6.7676L7.09836 7.47461ZM0.372711 0.747077L-0.334396 0.0399701L-1.0414 0.746978L-0.334495 1.45408L0.372711 0.747077ZM1.03812 0.081665L1.74523 -0.625442L1.03812 -1.33255L0.331016 -0.625442L1.03812 0.081665ZM7.72302 6.76656L0.331016 14.1586L1.74523 15.5728L9.13723 8.18077L7.72302 6.76656ZM1.74523 14.1586L1.07982 13.4931L-0.334395 14.9074L0.331017 15.5728L1.74523 14.1586ZM1.07982 14.9074L7.80546 8.18171L6.39125 6.7675L-0.334396 13.4931L1.07982 14.9074ZM7.80556 6.7676L1.07992 0.0400691L-0.334495 1.45408L6.39115 8.18161L7.80556 6.7676ZM1.07982 1.45418L1.74523 0.788772L0.331016 -0.625442L-0.334396 0.0399701L1.07982 1.45418ZM0.331016 0.788772L7.72302 8.18077L9.13723 6.76656L1.74523 -0.625442L0.331016 0.788772Z" fill="white" mask="url(#path-1-inside-1_32_209)"/>
</svg>
